<svg width="80" height="80" viewBox="0 0 80 80" fill="none" xmlns="http://www.w3.org/2000/svg">
<path d="M79.1071 80H0.892857C0.656057 80 0.428957 79.9059 0.261514 79.7385C0.0940706 79.571 0 79.3439 0 79.1071V0.892857C0 0.656057 0.0940706 0.428957 0.261514 0.261514C0.428957 0.0940706 0.656057 0 0.892857 0H79.1071C79.3439 0 79.571 0.0940706 79.7385 0.261514C79.9059 0.428957 80 0.656057 80 0.892857V79.1071C80 79.3439 79.9059 79.571 79.7385 79.7385C79.571 79.9059 79.3439 80 79.1071 80ZM1.78929 78.2143H78.2178V1.78571H1.78929V78.2143Z" fill="#222222"/>
<path d="M34.3678 64.7644C31.5107 64.7644 28.9821 63.4752 26.8321 60.9287C25.2801 60.2399 23.845 59.3133 22.5786 58.1823C20.1525 56.5602 18.4419 54.0685 17.8 51.2216C16.9934 50.6403 16.2722 49.9491 15.6571 49.168C14.0107 48.1811 12.6427 46.7912 11.6821 45.1292C10.7216 43.4673 10.2 41.5881 10.1667 39.6688C10.1334 37.7496 10.5895 35.8534 11.4918 34.1592C12.3942 32.4649 13.7132 31.0284 15.3244 29.9849C16.9356 28.9415 18.786 28.3256 20.7011 28.1953C22.6163 28.065 24.5331 28.4245 26.2708 29.24C28.0085 30.0555 29.5099 31.3001 30.6335 32.8565C31.7571 34.4129 32.4658 36.2298 32.6928 38.1359C35.2608 39.0611 37.4063 40.8857 38.7321 43.2716L39.5928 42.7573C42.35 41.1109 46.0714 38.8859 48.4535 36.1073C47.756 34.8668 47.3837 33.47 47.3712 32.0468C47.3587 30.6237 47.7065 29.2206 48.3821 27.968L49.5035 25.2573C49.5116 25.2376 49.5212 25.2185 49.5321 25.2002C49.6285 25.0037 50.6035 23.2716 53.7964 23.2716C54.0785 23.2716 54.375 23.2716 54.6786 23.3109C54.9891 22.8469 55.4103 22.4674 55.9041 22.2068C56.3979 21.9462 56.9488 21.8126 57.5071 21.818C57.9208 21.8214 58.3319 21.8827 58.7285 22.0002L58.8321 22.0359C59.6348 22.3795 60.2742 23.019 60.6178 23.8216C60.8307 23.7909 61.0456 23.7754 61.2607 23.7752C61.905 23.7527 62.5408 23.9282 63.0823 24.2782C63.6238 24.6281 64.045 25.1356 64.2893 25.7323C64.9428 26.1859 65.6893 27.2252 65.6321 29.0895C66.0785 29.8037 67.0214 31.8109 66.3464 34.8037C66.2857 35.1966 65.7607 38.018 63.2035 41.018L63.1571 41.068C62.9107 41.3145 60.7928 43.393 58.9714 44.0502C57.7464 45.5502 50.1178 54.7966 43.6678 60.5537C43.3036 60.9037 39.2678 64.7644 34.3678 64.7644ZM21.4678 29.9537C19.3738 29.9544 17.3385 30.6454 15.6768 31.9197C14.0152 33.194 12.82 34.9805 12.2762 37.0026C11.7324 39.0248 11.8704 41.1698 12.6689 43.1056C13.4673 45.0414 14.8816 46.66 16.6928 47.7109C16.7899 47.7675 16.8758 47.8413 16.9464 47.9287C17.5392 48.7118 18.2644 49.385 19.0893 49.918C19.1949 49.9836 19.2857 50.0705 19.3558 50.1732C19.426 50.2759 19.4738 50.3922 19.4964 50.5144C19.7352 51.7746 20.2246 52.9741 20.9356 54.0415C21.6466 55.109 22.5648 56.0228 23.6357 56.7287C23.6743 56.752 23.7103 56.7796 23.7429 56.8109C24.9168 57.8707 26.2574 58.7298 27.7107 59.3537C27.8516 59.4094 27.9749 59.5019 28.0678 59.6216C29.8964 61.8502 32.0178 62.9787 34.3714 62.9787C38.6571 62.9787 42.3821 59.3073 42.4214 59.2716L42.4571 59.2359C49.35 53.0895 57.6607 42.8073 57.7428 42.7216C57.8596 42.5757 58.0197 42.4707 58.2 42.4216C59.4 42.0859 61.225 40.4609 61.8607 39.8287C64.1785 37.1145 64.575 34.543 64.5785 34.518V34.4466C65.2285 31.5287 64.0071 29.8966 63.9928 29.8823C63.8525 29.7041 63.7837 29.48 63.8 29.2537C63.9214 27.6787 63.3214 27.2359 63.2071 27.168C63.0864 27.1296 62.9772 27.0614 62.8898 26.9696C62.8024 26.8778 62.7396 26.7655 62.7071 26.643C62.4321 25.8859 61.9928 25.5466 61.2285 25.5466C60.8822 25.5522 60.5393 25.6162 60.2143 25.7359C60.0734 25.7939 59.92 25.8151 59.7687 25.7973C59.6173 25.7796 59.473 25.7236 59.3493 25.6346C59.2256 25.5456 59.1267 25.4265 59.0618 25.2886C58.9969 25.1508 58.9683 24.9986 58.9785 24.8466C59.0285 24.1895 58.3357 23.7752 58.1464 23.7002C57.9302 23.6389 57.7068 23.6065 57.4821 23.6037C57.1631 23.6035 56.8511 23.6967 56.5845 23.8719C56.3179 24.0471 56.1085 24.2966 55.9821 24.5895C55.909 24.7788 55.7738 24.9377 55.5986 25.0402C55.4235 25.1427 55.2187 25.1827 55.0178 25.1537C54.6052 25.0917 54.1886 25.0595 53.7714 25.0573C51.8357 25.0573 51.2071 25.8502 51.1035 26.0002L49.9893 28.6966C49.9779 28.7265 49.9635 28.7552 49.9464 28.7823C47.9607 32.4252 50.2214 35.6287 50.2464 35.6609C50.3582 35.8182 50.4164 36.0072 50.4125 36.2001C50.4087 36.393 50.3429 36.5796 50.225 36.7323C47.6678 39.993 43.5143 42.4752 40.4821 44.2859C39.8714 44.643 39.3071 45.0002 38.8214 45.2966C38.7127 45.3639 38.5909 45.4072 38.4641 45.4237C38.3373 45.4402 38.2085 45.4295 38.0862 45.3924C37.9639 45.3552 37.8509 45.2924 37.7547 45.2082C37.6586 45.1239 37.5815 45.0201 37.5286 44.9037C36.9748 43.6527 36.1575 42.536 35.1324 41.6299C34.1074 40.7238 32.8988 40.0498 31.5893 39.6537C31.4154 39.6011 31.2617 39.4966 31.1487 39.3543C31.0358 39.212 30.9689 39.0386 30.9571 38.8573C30.797 36.4474 29.7284 34.188 27.9671 32.5355C26.2058 30.8829 23.883 29.9602 21.4678 29.9537Z" fill="#222222"/>
<path d="M38.7322 50.1357C38.6799 50.1391 38.6274 50.1391 38.575 50.1357C38.3434 50.0923 38.1383 49.9591 38.0045 49.765C37.8707 49.571 37.819 49.332 37.8608 49.1C38.0853 47.6826 37.9703 46.2321 37.525 44.8679C37.4523 44.6486 37.4674 44.4097 37.5671 44.2013C37.6668 43.9929 37.8434 43.8313 38.0598 43.7504C38.2761 43.6695 38.5154 43.6756 38.7274 43.7674C38.9394 43.8593 39.1075 44.0297 39.1965 44.2429C39.7565 45.9065 39.9012 47.6819 39.6179 49.4143C39.5778 49.6191 39.4673 49.8034 39.3055 49.9352C39.1437 50.067 38.9409 50.1379 38.7322 50.1357Z" fill="#222222"/>
<path d="M22.4392 52.4498C19.0964 52.4498 17.225 50.6927 17.1285 50.5998C16.9576 50.4355 16.8589 50.21 16.8542 49.9729C16.8495 49.7358 16.9392 49.5065 17.1035 49.3355C17.2679 49.1646 17.4934 49.0659 17.7305 49.0612C17.9676 49.0565 18.1968 49.1462 18.3678 49.3105C18.4678 49.407 20.7035 51.432 24.7499 50.3427C24.8632 50.3122 24.9814 50.3043 25.0977 50.3195C25.214 50.3347 25.3262 50.3726 25.4278 50.4312C25.5295 50.4897 25.6186 50.5677 25.6901 50.6607C25.7616 50.7536 25.8141 50.8598 25.8446 50.973C25.8751 51.0863 25.883 51.2045 25.8678 51.3208C25.8526 51.4371 25.8147 51.5493 25.7561 51.6509C25.6976 51.7526 25.6196 51.8417 25.5266 51.9132C25.4337 51.9847 25.3275 52.0372 25.2142 52.0677C24.3103 52.3178 23.3771 52.4463 22.4392 52.4498Z" fill="#222222"/>
</svg>
