<svg width="80" height="80" viewBox="0 0 80 80" fill="none" xmlns="http://www.w3.org/2000/svg">
<path d="M79.1071 80H0.892864C0.77548 80.0005 0.659171 79.9777 0.550631 79.933C0.442092 79.8883 0.343544 79.8225 0.26054 79.7395C0.177536 79.6565 0.111762 79.5579 0.0670586 79.4494C0.0223557 79.3408 -0.00046519 79.2245 7.18613e-06 79.1071V0.892864C-0.00046519 0.77548 0.0223557 0.659171 0.0670586 0.550631C0.111762 0.442092 0.177536 0.343457 0.26054 0.260453C0.343544 0.177449 0.442092 0.111718 0.550631 0.0670151C0.659171 0.0223121 0.77548 -0.000465176 0.892864 7.19952e-06H79.1071C79.2245 -0.000465176 79.3408 0.0223121 79.4494 0.0670151C79.5579 0.111718 79.6565 0.177449 79.7395 0.260453C79.8225 0.343457 79.8883 0.442092 79.933 0.550631C79.9777 0.659171 80.0005 0.77548 80 0.892864V79.1071C80.0005 79.2245 79.9777 79.3408 79.933 79.4494C79.8883 79.5579 79.8225 79.6565 79.7395 79.7395C79.6565 79.8225 79.5579 79.8883 79.4494 79.933C79.3408 79.9777 79.2245 80.0005 79.1071 80ZM1.7893 78.2143H78.2178V1.78572H1.7893V78.2143Z" fill="#222222"/>
<path d="M57.4429 65.9534H20.6572C19.4737 65.9515 18.3393 65.4806 17.5025 64.6438C16.6657 63.8069 16.1948 62.6725 16.1929 61.4891V18.2748C16.1938 17.0911 16.6645 15.9562 17.5015 15.1191C18.3385 14.2821 19.4734 13.8115 20.6572 13.8105H57.4429C58.6266 13.8115 59.7615 14.2821 60.5986 15.1191C61.4356 15.9562 61.9062 17.0911 61.9071 18.2748V61.4891C61.9053 62.6725 61.4343 63.8069 60.5975 64.6438C59.7607 65.4806 58.6263 65.9515 57.4429 65.9534ZM20.6572 15.5963C19.9468 15.5963 19.2655 15.8785 18.7631 16.3808C18.2608 16.8831 17.9786 17.5644 17.9786 18.2748V61.4891C17.9795 62.1992 18.2621 62.8799 18.7642 63.3821C19.2663 63.8842 19.947 64.1667 20.6572 64.1677H57.4429C58.153 64.1667 58.8337 63.8842 59.3358 63.3821C59.8379 62.8799 60.1205 62.1992 60.1214 61.4891V18.2748C60.1214 17.5644 59.8392 16.8831 59.3369 16.3808C58.8345 15.8785 58.1533 15.5963 57.4429 15.5963H20.6572Z" fill="#222222"/>
<path d="M38.8715 59.643C35.8451 59.6437 32.8865 58.7468 30.3699 57.0659C27.8533 55.385 25.8917 52.9955 24.7332 50.1997C23.5747 47.4038 23.2715 44.3272 23.8617 41.359C24.4519 38.3907 25.9092 35.6642 28.0491 33.5242C30.1891 31.3843 32.9156 29.927 35.8839 29.3368C38.8521 28.7466 41.9287 29.0498 44.7246 30.2083C47.5204 31.3667 49.9099 33.3284 51.5908 35.845C53.2717 38.3616 54.1686 41.3202 54.1679 44.3466C54.1641 48.4023 52.5513 52.2908 49.6835 55.1586C46.8157 58.0264 42.9272 59.6392 38.8715 59.643ZM38.8715 30.8322C36.1984 30.8315 33.5853 31.6235 31.3624 33.1081C29.1395 34.5926 27.4067 36.703 26.3833 39.1724C25.3599 41.6417 25.0918 44.3591 25.6129 46.9809C26.1339 49.6026 27.4207 52.0109 29.3106 53.9013C31.2004 55.7917 33.6084 57.0792 36.23 57.6009C38.8516 58.1226 41.5692 57.8552 44.0388 56.8325C46.5084 55.8097 48.6192 54.0775 50.1044 51.8551C51.5895 49.6326 52.3822 47.0196 52.3822 44.3466C52.3784 40.7641 50.9538 37.3294 48.421 34.7959C45.8882 32.2625 42.4539 30.837 38.8715 30.8322Z" fill="#222222"/>
<path d="M38.8715 56.3104C36.5052 56.3104 34.192 55.6087 32.2245 54.2941C30.257 52.9794 28.7235 51.1108 27.8179 48.9246C26.9124 46.7384 26.6755 44.3329 27.1371 42.012C27.5988 39.6912 28.7383 37.5593 30.4115 35.8861C32.0847 34.2129 34.2165 33.0734 36.5373 32.6117C38.8582 32.1501 41.2638 32.387 43.45 33.2926C45.6362 34.1981 47.5048 35.7316 48.8194 37.6991C50.1341 39.6666 50.8358 41.9798 50.8358 44.3461C50.832 47.5181 49.5702 50.5591 47.3273 52.802C45.0844 55.0449 42.0435 56.3066 38.8715 56.3104ZM38.8715 34.1676C36.8584 34.1676 34.8904 34.7645 33.2166 35.883C31.5427 37.0014 30.2381 38.5911 29.4677 40.451C28.6973 42.3108 28.4957 44.3574 28.8885 46.3319C29.2812 48.3063 30.2506 50.1199 31.6741 51.5434C33.0976 52.9669 34.9113 53.9364 36.8858 54.3291C38.8602 54.7219 40.9068 54.5203 42.7667 53.7499C44.6266 52.9795 46.2162 51.6749 47.3346 50.001C48.4531 48.3272 49.0501 46.3593 49.0501 44.3461C49.0472 41.6475 47.9739 39.0602 46.0657 37.1519C44.1575 35.2437 41.5701 34.1704 38.8715 34.1676Z" fill="#222222"/>
<path d="M35.4643 41.9754C35.2895 41.9741 35.1188 41.9217 34.9734 41.8247C34.828 41.7276 34.714 41.5902 34.6457 41.4292C34.5774 41.2683 34.5577 41.0909 34.5889 40.9189C34.6201 40.7469 34.7009 40.5878 34.8214 40.4611L41.775 33.2218C41.9393 33.0508 42.1649 32.9521 42.402 32.9474C42.6391 32.9428 42.8683 33.0324 43.0393 33.1968C43.2102 33.3611 43.309 33.5866 43.3137 33.8237C43.3184 34.0608 43.2286 34.2901 43.0643 34.4611L36.1072 41.7004C36.0243 41.7874 35.9245 41.8567 35.814 41.904C35.7035 41.9512 35.5845 41.9756 35.4643 41.9754Z" fill="#222222"/>
<path d="M35.7502 55.6002C35.5738 55.6005 35.4012 55.5485 35.2543 55.4509C35.1074 55.3532 34.9927 55.2142 34.9247 55.0515C34.8567 54.8887 34.8385 54.7095 34.8722 54.5364C34.906 54.3632 34.9903 54.204 35.1145 54.0787L45.0502 44.0037C45.132 43.918 45.23 43.8495 45.3385 43.8021C45.4471 43.7548 45.564 43.7294 45.6824 43.7276C45.8009 43.7259 45.9185 43.7477 46.0284 43.7918C46.1383 43.8359 46.2383 43.9014 46.3227 43.9846C46.407 44.0678 46.474 44.1669 46.5197 44.2762C46.5653 44.3855 46.5888 44.5027 46.5887 44.6212C46.5886 44.7396 46.5649 44.8569 46.519 44.9661C46.4732 45.0753 46.4061 45.1743 46.3216 45.2573L36.3716 55.3323C36.2079 55.5 35.9845 55.5962 35.7502 55.6002Z" fill="#222222"/>
<path d="M31.35 52.9038C31.1752 52.9025 31.0046 52.8502 30.8591 52.7531C30.7137 52.6561 30.5999 52.5187 30.5315 52.3577C30.4632 52.1968 30.4434 52.0194 30.4746 51.8474C30.5058 51.6753 30.5866 51.5162 30.7071 51.3896L35.1072 46.8467C35.1885 46.7615 35.286 46.6932 35.3939 46.6458C35.5017 46.5984 35.6179 46.5728 35.7357 46.5705C35.8535 46.5682 35.9706 46.5892 36.0802 46.6324C36.1899 46.6756 36.2899 46.7401 36.3745 46.8221C36.4591 46.9041 36.5267 47.002 36.5732 47.1102C36.6198 47.2185 36.6445 47.3349 36.6459 47.4527C36.6472 47.5706 36.6253 47.6875 36.5812 47.7968C36.5372 47.9061 36.472 48.0056 36.3893 48.0896L31.9893 52.6324C31.9062 52.7179 31.8068 52.7859 31.697 52.8326C31.5873 52.8792 31.4693 52.9034 31.35 52.9038Z" fill="#222222"/>
<path d="M25.3001 26.0714C24.5817 26.0714 23.8795 25.8584 23.2822 25.4593C22.6849 25.0602 22.2194 24.4929 21.9445 23.8292C21.6696 23.1655 21.5976 22.4352 21.7377 21.7307C21.8779 21.0261 22.2239 20.3789 22.7318 19.8709C23.2398 19.363 23.8869 19.0171 24.5915 18.8769C25.2961 18.7368 26.0264 18.8087 26.6901 19.0836C27.3537 19.3585 27.921 19.824 28.3201 20.4213C28.7192 21.0186 28.9322 21.7209 28.9322 22.4392C28.9303 23.402 28.5471 24.3247 27.8664 25.0055C27.1856 25.6862 26.2628 26.0695 25.3001 26.0714ZM25.3001 20.5964C24.9348 20.5964 24.5777 20.7048 24.2739 20.9078C23.9702 21.1109 23.7336 21.3995 23.5939 21.7371C23.4543 22.0747 23.4179 22.4461 23.4895 22.8044C23.561 23.1626 23.7372 23.4916 23.9958 23.7497C24.2544 24.0078 24.5837 24.1834 24.9421 24.2542C25.3005 24.325 25.6718 24.288 26.0092 24.1477C26.3465 24.0074 26.6346 23.7702 26.8371 23.4661C27.0395 23.162 27.1472 22.8046 27.1465 22.4392C27.1456 21.9502 26.9506 21.4814 26.6044 21.1359C26.2583 20.7904 25.7892 20.5964 25.3001 20.5964Z" fill="#222222"/>
<path d="M39.5858 26.0714C38.8674 26.0714 38.1651 25.8584 37.5678 25.4593C36.9705 25.0602 36.505 24.4929 36.2301 23.8292C35.9552 23.1655 35.8832 22.4352 36.0234 21.7307C36.1635 21.0261 36.5095 20.3789 37.0175 19.8709C37.5254 19.363 38.1726 19.0171 38.8771 18.8769C39.5817 18.7368 40.312 18.8087 40.9757 19.0836C41.6394 19.3585 42.2067 19.824 42.6058 20.4213C43.0049 21.0186 43.2179 21.7209 43.2179 22.4392C43.216 23.402 42.8328 24.3247 42.152 25.0055C41.4713 25.6862 40.5485 26.0695 39.5858 26.0714ZM39.5858 20.5964C39.2204 20.5964 38.8633 20.7048 38.5596 20.9078C38.2559 21.1109 38.0192 21.3995 37.8796 21.7371C37.7399 22.0747 37.7036 22.4461 37.7751 22.8044C37.8466 23.1626 38.0228 23.4916 38.2814 23.7497C38.54 24.0078 38.8693 24.1834 39.2277 24.2542C39.5861 24.325 39.9575 24.288 40.2948 24.1477C40.6321 24.0074 40.9202 23.7702 41.1227 23.4661C41.3252 23.162 41.4329 22.8046 41.4322 22.4392C41.4312 21.9502 41.2362 21.4814 40.8901 21.1359C40.5439 20.7904 40.0748 20.5964 39.5858 20.5964Z" fill="#222222"/>
<path d="M53.275 26.0714C52.5566 26.0714 51.8544 25.8584 51.2571 25.4593C50.6598 25.0602 50.1942 24.4929 49.9193 23.8292C49.6444 23.1655 49.5725 22.4352 49.7126 21.7307C49.8528 21.0261 50.1987 20.3789 50.7066 19.8709C51.2146 19.363 51.8618 19.0171 52.5664 18.8769C53.2709 18.7368 54.0012 18.8087 54.6649 19.0836C55.3286 19.3585 55.8959 19.824 56.295 20.4213C56.6941 21.0186 56.9071 21.7209 56.9071 22.4392C56.9062 23.4023 56.5232 24.3256 55.8422 25.0065C55.1613 25.6875 54.238 26.0704 53.275 26.0714ZM53.275 20.5964C52.9096 20.5964 52.5525 20.7048 52.2488 20.9078C51.9451 21.1109 51.7084 21.3995 51.5687 21.7371C51.4291 22.0747 51.3927 22.4461 51.4642 22.8044C51.5358 23.1626 51.712 23.4916 51.9706 23.7497C52.2292 24.0078 52.5586 24.1834 52.917 24.2542C53.2754 24.325 53.6467 24.288 53.984 24.1477C54.3214 24.0074 54.6095 23.7702 54.8119 23.4661C55.0144 23.162 55.1221 22.8046 55.1214 22.4392C55.1204 21.9502 54.9255 21.4814 54.5793 21.1359C54.2331 20.7904 53.7641 20.5964 53.275 20.5964Z" fill="#222222"/>
</svg>
