<svg width="80" height="80" viewBox="0 0 80 80" fill="none" xmlns="http://www.w3.org/2000/svg">
<path d="M79.1071 80H0.892857C0.656057 80 0.428935 79.9059 0.261492 79.7385C0.0940489 79.571 0 79.3439 0 79.1071V0.892857C0 0.656057 0.0940489 0.428957 0.261492 0.261514C0.428935 0.0940707 0.656057 0 0.892857 0H79.1071C79.3439 0 79.5711 0.0940707 79.7385 0.261514C79.906 0.428957 80 0.656057 80 0.892857V79.1071C80 79.3439 79.906 79.571 79.7385 79.7385C79.5711 79.9059 79.3439 80 79.1071 80ZM1.78929 78.2143H78.2179V1.78571H1.78929V78.2143Z" fill="#222222"/>
<path d="M25.4929 65.811C25.4548 65.8144 25.4166 65.8144 25.3786 65.811C25.262 65.7965 25.1496 65.759 25.0476 65.7008C24.9457 65.6425 24.8562 65.5647 24.7845 65.4717C24.7128 65.3788 24.6602 65.2725 24.6297 65.1591C24.5993 65.0457 24.5916 64.9274 24.6072 64.811C24.8264 63.2979 25.1232 61.7972 25.4964 60.3146C25.3284 60.4633 25.1105 60.5433 24.8862 60.5387C24.6618 60.534 24.4475 60.4451 24.2857 60.2896C15.6286 51.9396 23.7964 39.9003 23.8786 39.7824C23.951 39.6784 24.0446 39.5909 24.1534 39.5257C24.2621 39.4605 24.3834 39.4191 24.5093 39.4043C24.6352 39.3894 24.7628 39.4014 24.8837 39.4395C25.0046 39.4776 25.1161 39.5409 25.2107 39.6253C26.3214 40.6253 26.9072 40.7253 27.0607 40.6396C27.8286 40.211 27.9214 36.486 27.2536 32.8217C27.2319 32.7011 27.2354 32.5774 27.2637 32.4582C27.2919 32.339 27.3444 32.2269 27.4179 32.1288C34.7107 22.3503 43.4071 18.9896 49.4179 17.8896C55.9464 16.6967 60.7 17.8146 60.9 17.8646C61.0846 17.9096 61.25 18.0124 61.3722 18.158C61.4944 18.3035 61.5669 18.4843 61.5792 18.6739C61.5916 18.8636 61.5431 19.0522 61.4409 19.2124C61.3386 19.3726 61.1879 19.4959 61.0107 19.5646C45.3714 25.5967 36.7893 37.6396 32.3428 46.6788C27.5143 56.4931 26.3893 64.9538 26.3786 65.0396C26.3492 65.2535 26.2433 65.4496 26.0804 65.5914C25.9176 65.7333 25.7088 65.8113 25.4929 65.811ZM24.8286 41.6146C23.2572 44.2896 19.0929 52.7931 25.525 58.9967C25.6212 59.09 25.6956 59.2034 25.7428 59.3288C26.9537 54.6901 28.6288 50.1853 30.7428 45.8824C35.0286 37.1646 43.0571 25.736 57.3036 19.186C54.7476 19.0301 52.1821 19.1873 49.6643 19.6538C41.525 21.1646 34.6036 25.6146 29.0822 32.8681C29.4679 35.1574 30.1893 40.9181 27.9357 42.1753C26.8393 42.8003 25.6464 42.2074 24.8286 41.6146Z" fill="#222222"/>
<path d="M27.5464 61.7035C27.3284 61.702 27.1185 61.6208 26.9563 61.4752C26.794 61.3296 26.6906 61.1297 26.6656 60.9132C26.6405 60.6966 26.6956 60.4784 26.8203 60.2997C26.9451 60.1209 27.1309 59.994 27.3428 59.9428C37.6071 57.557 43.3214 46.6928 44.8035 43.4856L39.9 42.0177C39.7138 41.962 39.5509 41.8471 39.4359 41.6904C39.321 41.5336 39.2603 41.3437 39.2631 41.1494C39.266 40.955 39.3321 40.7669 39.4516 40.6136C39.571 40.4603 39.7373 40.3502 39.925 40.2999L47.3035 38.3142C59.6535 25.0677 59.8035 18.7856 59.8035 18.7249C59.8035 18.4881 59.8976 18.261 60.0651 18.0935C60.2325 17.9261 60.4596 17.832 60.6964 17.832C60.9332 17.832 61.1603 17.9261 61.3278 18.0935C61.4952 18.261 61.5892 18.4881 61.5892 18.7249C61.5892 19.007 61.4393 25.8356 48.4428 39.7177C48.3286 39.8398 48.1827 39.9276 48.0214 39.9713L43.4285 41.207L46.2857 42.0678C46.4042 42.1026 46.5141 42.1619 46.6082 42.2419C46.7023 42.3218 46.7786 42.4207 46.8321 42.532C46.8869 42.6424 46.9177 42.763 46.9227 42.8861C46.9276 43.0092 46.9065 43.132 46.8607 43.2463C46.6142 43.8749 40.675 58.6785 27.7535 61.682C27.6854 61.6965 27.616 61.7037 27.5464 61.7035Z" fill="#222222"/>
</svg>
