<svg width="80" height="80" viewBox="0 0 80 80" fill="none" xmlns="http://www.w3.org/2000/svg">
<path d="M79.1071 80H0.892864C0.77548 80.0005 0.659171 79.9776 0.550631 79.9329C0.442092 79.8882 0.343478 79.8225 0.260475 79.7395C0.177471 79.6565 0.111718 79.5579 0.0670151 79.4494C0.0223121 79.3408 -0.000465176 79.2245 7.19952e-06 79.1071V0.892864C-0.000465176 0.77548 0.0223121 0.659171 0.0670151 0.550631C0.111718 0.442092 0.177471 0.343457 0.260475 0.260453C0.343478 0.177449 0.442092 0.111674 0.550631 0.0669715C0.659171 0.0222685 0.77548 -0.000465163 0.892864 7.21296e-06H79.1071C79.2245 -0.000465163 79.3408 0.0222685 79.4494 0.0669715C79.5579 0.111674 79.6565 0.177449 79.7395 0.260453C79.8225 0.343457 79.8883 0.442092 79.933 0.550631C79.9777 0.659171 80.0005 0.77548 80 0.892864V79.1071C80.0005 79.2245 79.9777 79.3408 79.933 79.4494C79.8883 79.5579 79.8225 79.6565 79.7395 79.7395C79.6565 79.8225 79.5579 79.8882 79.4494 79.9329C79.3408 79.9776 79.2245 80.0005 79.1071 80ZM1.7893 78.2143H78.2178V1.78572H1.7893V78.2143Z" fill="#222222"/>
<path d="M41.2322 47.9785C37.5944 47.9785 34.0383 46.8999 31.0136 44.8788C27.9889 42.8578 25.6315 39.9852 24.2394 36.6243C22.8473 33.2635 22.483 29.5653 23.1927 25.9974C23.9024 22.4296 25.6541 19.1523 28.2264 16.58C30.7987 14.0077 34.076 12.256 37.6439 11.5463C41.2117 10.8366 44.9099 11.2008 48.2708 12.5929C51.6316 13.985 54.5042 16.3425 56.5253 19.3672C58.5463 22.3919 59.625 25.9479 59.625 29.5857C59.6193 34.462 57.6797 39.137 54.2316 42.5851C50.7835 46.0332 46.1085 47.9729 41.2322 47.9785ZM41.2322 12.9785C37.9476 12.9785 34.7367 13.9525 32.0057 15.7774C29.2747 17.6022 27.1461 20.1959 25.8892 23.2304C24.6322 26.265 24.3033 29.6041 24.9441 32.8256C25.5849 36.0471 27.1666 39.0062 29.4891 41.3288C31.8117 43.6513 34.7708 45.233 37.9923 45.8738C41.2137 46.5146 44.5529 46.1857 47.5874 44.9287C50.622 43.6717 53.2157 41.5431 55.0405 38.8121C56.8653 36.0811 57.8393 32.8703 57.8393 29.5857C57.8346 25.1826 56.0834 20.9613 52.97 17.8479C49.8565 14.7345 45.6352 12.9833 41.2322 12.9785Z" fill="#222222"/>
<path d="M27.3036 66.9072C23.6658 66.9072 20.1097 65.8286 17.085 63.8075C14.0603 61.7865 11.7029 58.9139 10.3108 55.5531C8.91868 52.1922 8.55443 48.494 9.26413 44.9261C9.97382 41.3583 11.7256 38.081 14.2978 35.5087C16.8701 32.9364 20.1474 31.1847 23.7153 30.475C27.2832 29.7653 30.9813 30.1295 34.3422 31.5216C37.7031 32.9137 40.5756 35.2712 42.5967 38.2959C44.6177 41.3206 45.6964 44.8766 45.6964 48.5144C45.6908 53.3907 43.7511 58.0657 40.303 61.5138C36.8549 64.9619 32.1799 66.9016 27.3036 66.9072ZM27.3036 31.9073C24.019 31.9073 20.8082 32.8813 18.0771 34.7061C15.3461 36.5309 13.2175 39.1246 11.9606 42.1592C10.7036 45.1937 10.3747 48.5328 11.0155 51.7543C11.6563 54.9758 13.238 57.9349 15.5605 60.2575C17.8831 62.58 20.8422 64.1617 24.0637 64.8025C27.2851 65.4433 30.6243 65.1144 33.6588 63.8574C36.6934 62.6005 39.2871 60.4718 41.1119 57.7408C42.9367 55.0098 43.9107 51.799 43.9107 48.5144C43.906 44.1114 42.1548 39.8901 39.0414 36.7766C35.9279 33.6632 31.7066 31.912 27.3036 31.9073Z" fill="#222222"/>
<path d="M54.0893 66.9072C50.4515 66.9072 46.8954 65.8286 43.8707 63.8075C40.8461 61.7865 38.4886 58.9139 37.0965 55.5531C35.7044 52.1922 35.3401 48.494 36.0498 44.9261C36.7595 41.3583 38.5113 38.081 41.0836 35.5087C43.6558 32.9364 46.9331 31.1847 50.501 30.475C54.0689 29.7653 57.7671 30.1295 61.1279 31.5216C64.4888 32.9137 67.3613 35.2712 69.3824 38.2959C71.4034 41.3206 72.4821 44.8766 72.4821 48.5144C72.4765 53.3907 70.5368 58.0657 67.0887 61.5138C63.6406 64.9619 58.9656 66.9016 54.0893 66.9072ZM54.0893 31.9073C50.8047 31.9073 47.5939 32.8813 44.8628 34.7061C42.1318 36.5309 40.0032 39.1246 38.7463 42.1592C37.4893 45.1937 37.1604 48.5328 37.8012 51.7543C38.442 54.9758 40.0237 57.9349 42.3462 60.2575C44.6688 62.58 47.6279 64.1617 50.8494 64.8025C54.0708 65.4433 57.41 65.1144 60.4446 63.8574C63.4791 62.6005 66.0728 60.4718 67.8976 57.7408C69.7224 55.0098 70.6964 51.799 70.6964 48.5144C70.6917 44.1114 68.9405 39.8901 65.8271 36.7766C62.7137 33.6632 58.4923 31.912 54.0893 31.9073Z" fill="#222222"/>
</svg>
